<svg width="702" height="702" viewBox="0 0 702 702" fill="none" xmlns="http://www.w3.org/2000/svg">
<path fill-rule="evenodd" clip-rule="evenodd" d="M318.092 52.0068C250.862 57.6002 177.362 95.2933 132.309 147.287C86.1329 200.572 58.5651 259.207 52.2786 317.498C50.8472 330.762 50.5428 360.788 51.7482 369.673L52.5167 375.337L66.1724 360.995L79.8281 346.653L80.5843 321.095C81.8659 277.743 91.0826 245.038 112.02 209.554C164.506 120.607 261 58.4706 363.708 58.4706C376.683 57.9002 381.201 57.2927 381.201 56.1184C381.201 51.7823 347.323 49.5752 318.092 52.0068ZM407.234 70.4584C377.076 81.5684 291.818 146.186 231.849 203.385C227.687 207.354 223.504 210.601 222.552 210.601C221.601 210.601 215.715 208.09 209.472 205.021C196.321 198.556 193.37 198.251 187.008 202.705C180.31 207.393 162.69 229.593 162.69 233.344C162.69 236.429 170.532 244.572 176.673 247.863L182.105 250.773L178.228 255.274C144.949 293.917 125.729 314.991 97.0315 344.302C59.4133 382.726 55.8901 387.012 55.8901 394.361C55.8901 409.192 70.7231 414.939 87.3471 406.55C102.155 399.076 126.526 374.384 145.024 348.114C150.5 340.338 165.886 318.458 179.215 299.49C192.544 280.523 204.661 263.581 206.143 261.841L208.838 258.677L217.988 260.654C260.287 269.791 318.149 266.113 369.565 251.022C403.477 241.068 419.681 231.13 416.339 222.335C415.449 219.991 414.768 220.042 398.387 223.675C375.073 228.844 260.789 222.733 247.599 215.61C244.374 213.87 297.409 164.934 326.74 142.589C373.821 106.721 394.73 104.676 409.326 134.513C417.398 151.013 421.197 170.166 430.813 242.84C438.21 298.745 441.063 311.664 448.695 323.819C461.268 343.845 481.81 339.463 525.261 307.486C550.969 288.565 566.169 272.323 565.122 264.893C564.506 260.52 559.633 261.595 545.985 269.114C523.449 281.531 514.794 283.795 506.473 279.448C498.68 275.378 496.253 267.28 484.909 207.501C469.112 124.262 462.464 101.84 447.786 82.3148C437.535 68.6754 423.34 64.5253 407.234 70.4584ZM488.541 90.4464C488.065 91.2251 493.116 96.9263 500.352 103.776C577.5 171.5 602.386 226.144 617 287.5C636.5 381.5 609.583 483.021 544.789 545.547C505.729 583.241 449.806 614.373 378.746 637.98C351.24 647.118 348.056 648.329 348.056 649.645C348.056 654.567 404.348 645.236 435.214 635.198C542.47 600.313 619.347 523.966 641.862 429.973C672.112 303.683 625.723 175.538 525.442 108.377C501.744 92.5059 490.596 87.0886 488.541 90.4464ZM352.702 304.81C319.794 311.819 292.747 328.309 272.497 353.71C249.969 381.965 245.568 415.263 260.554 444.067C276.782 475.262 302.699 483.872 366.47 479.254C411.742 475.977 425.196 476.721 436.979 483.153C445.441 487.77 448.118 492.772 448.057 503.849C447.936 526.04 428.504 548.291 393.477 566.346C334.265 596.867 254.299 596.207 213.635 564.863C183.467 541.609 186.3 506.925 219.8 489.388C225.138 486.595 228.159 484.148 229.097 481.862C234.973 467.542 211.77 475.697 193.298 494.444C164.517 523.656 158.6 558.782 177.616 587.546C200.224 621.74 259.22 636.578 318.594 623.001C389.19 606.858 457.535 551.13 474.682 495.728C478.759 482.552 478.776 461.126 474.717 450.9C464.656 425.557 435.033 415.122 387.501 420.178C327.43 426.569 299.796 422.048 289.361 404.12C286.372 398.985 286.063 397.283 286.063 385.988C286.063 373.996 286.245 373.152 290.854 363.732C299.657 345.744 318.93 330.359 343.146 321.989C359.053 316.491 386.117 315.897 396.881 320.811C419.119 330.963 413.877 350.925 383.042 373.515C380.603 375.302 380.606 375.334 383.412 378.351C389.299 384.682 405.765 391.6 414.96 391.606C425.717 391.614 443.867 376.548 448.647 363.643C457.051 340.954 446.423 319.058 422.262 309.288C404.381 302.058 374.62 300.143 352.702 304.81ZM93.8005 454.412C85.3522 461.683 79.6832 467.491 79.4623 469.098C78.614 475.26 100.874 514.443 115.941 533.308C126.093 546.02 156.137 572.666 160.32 572.666C162.974 572.666 162.057 568.247 158.205 562.478C136.915 530.604 121.415 495.341 112.324 458.097C110.343 449.983 108.508 443.128 108.248 442.864C107.986 442.6 101.485 447.797 93.8005 454.412Z" fill="black"/>
<path d="M351 14C537.088 14 688 165.295 688 352C688 538.705 537.088 690 351 690C164.912 690 14 538.705 14 352C14 165.295 164.912 14 351 14Z" stroke="black" stroke-width="24"/>
</svg>
