<svg xmlns="http://www.w3.org/2000/svg" width="1376" height="768" viewBox="0 0 1376 768"><path fill-rule="evenodd" d="M661 28.079a3005 3005 0 0 1-16.808 2.458c-4.804.672-6.417 2.847-3.626 4.888 1.735 1.268 1.689 1.615-1.014 7.638-3.494 7.785-5.196 14.099-6.115 22.68-.527 4.921-1.271 7.132-2.921 8.68-1.787 1.675-2.325 3.575-2.788 9.827-.713 9.636.956 10.409 4.823 2.234 3.313-7.003 5.516-8.133 19.708-10.113 16.588-2.313 20.184-1.733 25.473 4.108 5.02 5.545 7.864 5.659 6.762.272-1.536-7.507-3.004-11.039-5.182-12.466-1.724-1.13-2.312-2.453-2.312-5.2 0-2.027-.383-4.112-.852-4.635-1.492-1.663-3.506-26.492-2.251-27.747 1.239-1.239 1.511-4.764.353-4.591zm27-.044c0 .57.648 2.032 1.439 3.25 2.529 3.892-.096 35.864-3.082 37.535-.859.481-1.399 1.731-1.2 2.777.321 1.683 1.55 1.961 10.626 2.403 5.644.275 10.702.35 11.24.167 1.279-.437 1.262-3.873-.023-4.667-1.229-.76-1.312-19.458-.095-21.38 1.532-2.419 10.097-.559 10.087 2.191-.024 7.084-2.117 19.304-3.476 20.299-4.039 2.958-1.791 4.179 9.059 4.918 12.15.828 13.855.178 11.24-4.288-1.366-2.332-1.48-4.453-.768-14.24.461-6.325.864-13.642.895-16.26.042-3.473.599-5.222 2.058-6.472 4.513-3.864 2.8-4.919-9.172-5.646-11.907-.723-14.363-.08-12.053 3.156C719.24 38.031 718.53 40 711.81 40h-5.072l.586-3.606c.321-1.984 1.353-4.169 2.293-4.856 1.02-.746 1.454-1.911 1.077-2.893-.746-1.945-22.694-2.534-22.694-.61m61.574 4.632c-.352.917-.175 2.132.393 2.7 2.784 2.784-4.156 32.471-8.495 36.335-4.473 3.984-4.059 4.234 14.528 8.747 15.956 3.874 22.398 3.014 27.121-3.619 6.237-8.759.384-20.416-12.772-25.441-2.392-.913-4.349-2.297-4.349-3.075 0-2.558 2.94-7.16 4.989-7.811 1.593-.505 3.066-4.503 1.66-4.503-.193 0-4.898-1.125-10.455-2.5-11.984-2.965-11.806-2.953-12.62-.833M613.5 35.498c-.55.187-6.175 1.753-12.5 3.481-22.591 6.17-23.027 6.413-18.716 10.409 3.178 2.945 11.472 33.171 9.826 35.807-1.575 2.523-1.377 3.805.588 3.805 2.833 0 17.665-4.81 19.802-6.421 1.974-1.489 1.965-1.538-.687-3.794C609.601 76.904 606 68.341 606 64.963c0-.37 2.674-2.549 5.942-4.841s7.543-6.039 9.5-8.325c7.583-8.859 2.267-19.77-7.942-16.299m36.615 3.387c-3.574 3.574-6.419 13.006-6.521 21.615l-.094 8 6.223-.009c9.049-.012 9.679-.919 8.409-12.098-2.103-18.515-3.644-21.881-8.017-17.508m143.766 4.189c-1.067.659-1.088 1.463-.113 4.162 1.78 4.921-6.068 34.737-9.544 36.262-4.112 1.804-2.03 3.843 6.784 6.646 12.267 3.901 15.667 3.451 12.398-1.644-1.091-1.7-.697-4.251 2.621-17 2.148-8.25 3.92-15.319 3.939-15.71.019-.39 1.223-1.811 2.676-3.159 3.668-3.401 2.575-5.023-4.8-7.116-10.205-2.895-12.56-3.307-13.961-2.441m-191.766 2.834c-1.406.89-1.17 3.186.884 8.588 1.205 3.171 4.486 1.988 6.075-2.192 1.794-4.718-2.858-8.993-6.959-6.396m-49.195 8.945c-15.645 7.132-17.596 8.302-20.22 12.12-3.567 5.188.058 11.136 7.821 12.833 2.525.552 3.866 1.36 3.669 2.212-1.436 6.216-2.19 12.215-2.19 17.418 0 3.39-.51 6.674-1.133 7.297s-.87 1.817-.549 2.654c.482 1.256 2.254.742 10.117-2.932 5.243-2.45 9.935-4.455 10.426-4.455.492 0 1.49-.717 2.217-1.594 1.129-1.36.974-1.858-1.05-3.385-1.99-1.501-2.356-2.617-2.258-6.893.153-6.708 1.661-9.718 3.071-6.128.54 1.375 1.655 4.069 2.479 5.986 1.068 2.487 1.211 4.022.496 5.357-2.295 4.288.902 4.039 11.132-.867 10.352-4.965 12.174-7.054 7.843-8.989-1.529-.683-4.285-5.455-8.944-15.487-6.639-14.296-7.828-18.276-5.831-19.51 1.262-.78.292-2.527-1.325-2.387-.655.056-7.752 3.093-15.771 6.75m274.233.839c-.591 1.054-.582 2.467.023 3.794 1.44 3.162-12.511 31.461-16.426 33.319-4.839 2.295-3.252 3.93 10.5 10.81 7.288 3.646 14.498 7.513 16.024 8.593l2.774 1.963 6.226-5.748c10.265-9.475 11.182-11.833 3.285-8.448-8.272 3.545-20.559 1.46-20.559-3.489 0-2.09 5.813-13.486 6.88-13.486 2.014 0 6.162 4.382 6.921 7.311 1.512 5.836 3.661 4.478 6.078-3.838 2.421-8.333 4.293-9.391 5.121-2.895 1.045 8.196 4.124 3.73 7.667-11.124.422-1.769-1.379-2.967-13.34-8.873-20.129-9.939-20.045-9.908-21.174-7.889m-65.614 8.49c-2.582 8.692-1.373 11.43 3.971 8.995 4.192-1.91 4.251-10.634.09-13.412-2.013-1.344-2.511-.802-4.061 4.417m-212.434.191c-2.239 2.699 1.228 6.627 5.85 6.627h2.086L555 67c-2.121-4.158-3.948-4.972-5.895-2.627m292.156 6.898c-2.484 3.216-2.352 3.793 1.206 5.28 4.706 1.966 8.906-.043 5.784-2.767-3.33-2.905-5.958-3.849-6.99-2.513M490.25 89.607c-5.637 3.617-10.25 6.886-10.25 7.265s1.313 1.185 2.918 1.791c5.039 1.902 20.433 27.073 19.902 32.542-.428 4.412-.127 4.296 15.264-5.836C532.675 115.764 537 110.851 537 103.881c0-10.285-14.503-14.843-26.875-8.446-4.44 2.296-5.524 1.98-7.939-2.318-1.56-2.775-2.005-4.773-1.559-7 .785-3.927 1.626-4.21-10.377 3.49m170.25 2.928c-73.374 8.023-141.502 44.105-189.954 100.603-37.061 43.215-59.483 91.796-68.244 147.862-2.58 16.511-2.582 64.517-.003 81 17.935 114.622 94.999 204.255 204.201 237.507 59.752 18.194 129.588 15.539 187.321-7.12 151.249-59.362 226.286-228.42 167.485-377.343C913.122 153.009 790.093 78.364 660.5 92.535m242.664 7.767c-.594.716-.821 2.292-.505 3.502.655 2.504-.96 4.85-13.044 18.946-5.419 6.322-8.608 9.25-10.072 9.25-2.103 0-4.543 1.684-4.543 3.136 0 .693 12.999 11.614 15.794 13.27 2.094 1.24 4.186-1.258 3.581-4.279-.432-2.163.393-3.83 4.165-8.412 6.022-7.315 6.908-7.275 6.118.279-.823 7.876-2.986 13.006-5.485 13.006-1.06 0-2.449.627-3.085 1.394-.933 1.125.523 2.868 7.522 9.003 9.181 8.049 11.39 8.564 11.39 2.657 0-1.486 1.148-6.493 2.552-11.128 1.403-4.634 2.821-11.496 3.151-15.249l.599-6.823 5.099.642c2.805.353 6.603 1.11 8.441 1.681 3.655 1.136 5.841.044 4.887-2.441-.295-.769-3.499-3.999-7.121-7.179-6.385-5.606-9.608-6.653-9.608-3.124 0 .823-.87 1.962-1.934 2.532-2.32 1.241-10.066 1.387-10.066.19 0-1.322 3.247-3.843 6-4.659 6.87-2.036 6.559-3.081-3.25-10.905-8.998-7.176-9.013-7.184-10.586-5.289m-436.353 7.311c-3.471 3.11-9.809 8.375-14.084 11.701-7.551 5.873-9.017 8.182-5.199 8.189 1.562.003 2.127 1.539 3.566 9.697 1.754 9.941 4.782 17.808 9.964 25.888 3.55 5.535 3.536 5.378.474 5.554-3.899.225-28.864-20.179-29.54-24.142-.281-1.65-1.012-3-1.624-3-1.088 0-15.323 17.328-15.353 18.69-.008.379 1.655.829 3.696 1 3.446.288 3.77.595 4.54 4.31.457 2.2.699 5.269.54 6.821l-.291 2.821-4.337-3.724c-3.418-2.933-4.239-4.238-3.874-6.15.65-3.401-1.988-4.144-4.083-1.149-.916 1.309-4.463 5.818-7.881 10.019-6.498 7.986-6.829 9.113-2.417 8.23 2.904-.58 7.439 2.475 22.092 14.884 5.399 4.572 7.506 7.015 7.522 8.723.028 3.112 2.262 3.778 4.061 1.21.783-1.119 3.947-4.989 7.031-8.601 5.429-6.361 6.75-10.705 2.793-9.187-2.291.879-10.106-5.094-11.355-8.679-1.116-3.2-1.448-10.718-.474-10.718.319 0 3.923 3.005 8.01 6.678 6.008 5.397 7.382 7.17 7.172 9.25-.143 1.414.235 2.572.84 2.572 1.026 0 12.221-13.131 17.134-20.097 1.201-1.703 4.693-5.032 7.759-7.398 5.071-3.912 6.826-7.087 3.382-6.118-5.128 1.442-5.935 1.261-9.026-2.022-7.164-7.608-12.669-27.28-8.583-30.671 1.71-1.419 4.145.89 16.671 15.806 5.22 6.216 7.061 9.148 6.851 10.913-.506 4.24 1.653 3.315 10.534-4.513 9.229-8.134 10.077-9.4 6.293-9.4-4.594 0-26.117-25.152-25.075-29.303 1.115-4.443-1.3-3.844-7.729 1.916m43.95-3.914c-1.489.38-1.159 1.297 2.287 6.372 4.332 6.379 5.458 7.06 6.459 3.907 1.921-6.052-2.937-11.762-8.746-10.279m160.6 15.33c-117.988 9.158-212.175 90.039-237.776 204.187-7.189 32.052-7.605 75.488-1.04 108.417C458.671 562.667 580.309 654.165 713.5 642.971 835.216 632.741 931.655 542.472 950.644 421c2.575-16.473 2.608-60.689.058-77-18.539-118.575-111.699-209.443-229.097-223.46-16.311-1.947-36.718-2.561-50.244-1.511m-4.77 21.067c-54.766 4.511-114.639 34.91-151.34 76.842-37.615 42.974-60.072 90.262-65.193 137.273-1.166 10.697-1.414 34.913-.432 42.078l.626 4.568 11.124-11.566 11.124-11.567.616-20.612c1.044-34.963 8.552-61.339 25.608-89.956 42.755-71.735 120.913-118.184 205.026-121.847 10.57-.46 14.25-.95 14.25-1.897 0-3.497-27.597-5.277-51.409-3.316m282.585.128c-.647.647-1.176 2.334-1.176 3.748 0 2.073-2.087 4.234-10.75 11.13-13.561 10.795-15.849 12.266-17.869 11.491-1.611-.618-4.381.916-4.381 2.426 0 .637 9.481 13.534 11.956 16.264 1.293 1.426 4.044-.459 4.044-2.771 0-4.477 5.672-8.514 11.94-8.498 6.055.015 10.06.795 10.06 1.96 0 1.889-14.428 12.147-16.37 11.64-2.211-.579-4.63.914-4.63 2.856 0 1.562 12.726 16.53 14.055 16.53.547 0 1.267-1.358 1.598-3.017 1-4.996 25.656-25.654 29.256-24.512.933.296 2.554-.089 3.604-.857 1.831-1.339 1.752-1.59-1.968-6.254-7.456-9.349-10.787-12.404-12.223-11.212-.727.603-1.322 1.887-1.322 2.852 0 3.156-2.376 4.089-8.63 3.389-3.228-.361-6.447-.959-7.152-1.33-1.988-1.045 7.019-7.059 10.573-7.059 5.936 0 5.787-2.162-.703-10.23-7.508-9.333-8.376-10.082-9.912-8.546m-209.969 14.753c-24.567 8.96-94.019 61.073-142.87 107.203-3.39 3.201-6.798 5.82-7.573 5.82s-5.57-2.025-10.655-4.5c-10.713-5.214-13.117-5.46-18.3-1.868-5.456 3.781-19.809 21.685-19.809 24.71 0 2.488 6.388 9.055 11.39 11.709l4.425 2.347-3.158 3.63c-27.109 31.165-42.766 48.161-66.143 71.8C455.87 406.816 453 410.273 453 416.2c0 11.961 12.083 16.596 25.625 9.83 12.063-6.028 31.915-25.941 46.984-47.128 4.461-6.271 16.994-23.917 27.852-39.214s20.729-28.96 21.936-30.364l2.195-2.551 7.454 1.594c34.457 7.369 81.592 4.403 123.475-7.768 27.625-8.028 40.825-16.043 38.103-23.136-.725-1.89-1.28-1.849-14.624 1.081-18.992 4.169-112.088-.76-122.833-6.504-2.627-1.404 40.576-40.87 64.469-58.891 38.352-28.927 55.385-30.576 67.275-6.513 6.575 13.307 9.67 28.754 17.503 87.364 6.026 45.087 8.35 55.506 14.567 65.309 10.242 16.15 26.976 12.616 62.371-13.173 20.942-15.259 33.324-28.358 32.471-34.35-.502-3.527-4.471-2.66-15.589 3.404-18.358 10.014-25.408 11.84-32.187 8.334-6.348-3.282-8.325-9.813-17.566-58.024-12.868-67.131-18.284-85.214-30.24-100.961-8.351-11-19.914-14.347-33.034-9.562m66.233 16.12c-.388.628 3.727 5.226 9.621 10.75 47.136 44.182 81.484 98.67 93.389 148.153 18.171 75.526-4.409 157.703-57.19 208.129-31.819 30.4-77.374 55.507-135.26 74.546-22.406 7.37-25 8.346-25 9.408 0 3.969 45.856-3.556 70.999-11.652 87.372-28.134 149.996-89.707 168.337-165.511 24.642-101.851-13.147-205.198-94.836-259.362-19.305-12.8-28.386-17.169-30.06-14.461m180.248 17.938c-.928 1.325-1.688 2.966-1.688 3.645 0 .68-2.138 2.453-4.75 3.941s-8.563 4.973-13.223 7.744c-6.725 3.999-9.403 5.048-12.986 5.087-6.189.066-6.191 1.54-.018 11.99 5.134 8.694 6.579 9.684 8.516 5.836 3.733-7.416 7.82-8.971 16.583-6.31 3.821 1.161 6.696 2.517 6.389 3.014-1.578 2.553-15.786 9.213-18.497 8.671-5.246-1.049-5.28 1.156-.167 10.866 4.928 9.362 7.465 11.412 9.035 7.304 1.292-3.379 3.258-4.846 17.063-12.732 10.665-6.092 12.916-7.02 15.739-6.49 5.151.966 5.08-1.391-.347-11.569-3.856-7.233-5.242-9.017-6.837-8.802-1.223.165-2.127 1.168-2.328 2.581-.18 1.271-.979 2.561-1.775 2.867-1.536.589-14.397-2.747-14.397-3.735 0-1.787 10.369-5.816 12.303-4.781 1.631.873 2.296.739 3.327-.671 1.302-1.78-2.925-11.051-8.349-18.316l-1.904-2.551zm-598.722 9.555c-1.242 3.267-15.745 28.333-17.703 30.597-2.067 2.391-.773 3.765 3.005 3.189 5.05-.768 31.564 14.532 32.396 18.695.993 4.965 2.69 3.39 10.72-9.941 12.444-20.662 13.966-27.332 7.755-33.981-6.228-6.667-15.089-4.879-25.014 5.046-3.369 3.369-6.125 6.503-6.125 6.965 0 1.453-2.686.915-5.07-1.016-4.771-3.863 2.562-13.25 10.615-13.59 3.272-.137 4.97-.723 5.657-1.95 1.219-2.179 1.599-1.914-6.411-4.466-8.437-2.688-8.635-2.679-9.825.452m14.113 21.625c-4.106 2.179-3.451 3.475 3.989 7.895 6.871 4.082 7.243 4.185 8.558 2.387 4.49-6.141-5.272-14.142-12.547-10.282m601.516 60.035c-9.195 15.7-9.871 30.908-1.979 44.5 1.358 2.337 2.337 4.25 2.176 4.249-.161 0-2.659-.9-5.553-2-6.894-2.62-9.08-2.563-9.683.251-3.116 14.532-2.539 23.259 2.154 32.563 2.859 5.665 11.493 15.187 13.773 15.187 1.846 0 4.936-4.075 7.15-9.427 2.531-6.119 7.834-5.464 9.839 1.216.612 2.039.421 2.222-1.752 1.677-4.554-1.143-15.916 16.404-17.894 27.634-1.168 6.629-1.186 6.642-5.326 3.9-4.481-2.967-5.098-2.596-7.9 4.75-5.792 15.183-5.628 24.918.626 37.16 4.592 8.99 5.506 9.338 11.452 4.36 4.64-3.885 4.946-4.453 6.132-11.365 1.865-10.88 6.334-19.092 15.152-27.849l7.497-7.445-.16-5.555c-.089-3.056-1.11-8.256-2.271-11.556l-2.11-6 2.268-1.5c11.043-7.306 18.086-22.61 16.514-35.883-.65-5.488-5.668-19.117-7.039-19.117-.499 0-3.692 1.987-7.096 4.416-6.685 4.771-10.53 9.744-12.86 16.636-2.043 6.046-3.581 6.17-2.997.242.338-3.423 1.9-7.173 5.465-13.114 9.779-16.299 7.483-31.943-6.955-47.378-5.462-5.839-5.524-5.843-8.623-.552m-634.691 2.85c-10.642 11.046-15.401 26.197-12.045 38.35 1.417 5.132 1.233 5.198-4.439 1.601-6.996-4.436-7.831-4.15-10.789 3.699-7.227 19.182-5.087 35.496 5.924 45.164 4.77 4.189 5.419 3.981 9.445-3.029 5.731-9.978 10.913-12.279 10.998-4.885.016 1.375.315 3.625.664 5l.634 2.5-2.479-2.266c-2.355-2.152-2.555-2.177-4.009-.5-7.957 9.18-13.938 30.79-9.876 35.684 2.029 2.444.859 2.772-3.902 1.093-2.355-.831-5.742-1.511-7.527-1.511h-3.245l-.68 7.799c-1.67 19.146 4.982 34.926 18.493 43.867 5.261 3.481 6.533 2.639 9.077-6.01 1.688-5.738 2.916-8.005 5.414-9.998l3.23-2.578.69 3.676c.379 2.022 1.551 4.279 2.604 5.017 1.053.737 1.914 2.268 1.914 3.402 0 1.975-.146 1.951-3.433-.556-4.343-3.313-4.235-3.333-6.145 1.131-2.922 6.827-4.531 18.851-3.43 25.632.546 3.365.996 6.415 1 6.779s2.033 1.641 4.508 2.839c5.447 2.637 5.895 4.224.795 2.816-3.864-1.067-15.706-.738-16.915.47-1.297 1.297 2.657 18.176 5.75 24.545 3.575 7.36 11.382 15.594 18.176 19.169 6.079 3.198 6.658 2.41 6.679-9.083.017-9.917.293-10.456 4.176-8.163 2.468 1.458 3.188 1.509 5.036.355 1.878-1.173 2.327-1.113 3.48.463q4.405 6.03-4.432 3.498c-4.008-1.149-4.683.595-4.614 11.93.067 11.214 2.571 18.582 8.054 23.708l4.501 4.207-2.843.643c-14.634 3.308-14.52 3.146-9.399 13.331 4.752 9.452 10.329 15.993 17.638 20.691 6.066 3.899 15.55 6.855 19.12 5.959 2.681-.673 2.813-3.16.675-12.789-.554-2.498-.347-2.753 2.256-2.782 1.577-.017 3.723-.679 4.768-1.471 1.715-1.297 2.24-1.141 5.349 1.589 6.993 6.139 11.449.942 11.477-13.385.024-12.401-3.462-20.36-15.199-34.701l-2.046-2.5-4.025 4.5c-2.214 2.475-5.285 6.637-6.826 9.249-1.54 2.611-3.1 4.449-3.466 4.083-1.041-1.041-.78-5.985.459-8.706 1.359-2.981-.958-6.963-7.486-12.868-3.573-3.232-3.968-3.983-2.897-5.5 9.391-13.302 10.194-29.115 2.333-45.914-3.475-7.425-3.141-7.327-9.743-2.881-7.376 4.968-13.259 14.254-13.309 21.009l-.022 2.972-2.234-2.233c-1.895-1.896-2.046-2.532-1-4.209.679-1.086 1.234-2.735 1.234-3.664s1.628-4.983 3.617-9.01l3.618-7.321-2.227-5.487c-1.225-3.018-4.014-7.518-6.199-10l-3.972-4.512 2.915-2.453c6.304-5.304 12.268-20.272 12.174-30.555-.066-7.395-2.216-18.263-3.71-18.761-5.018-1.673-16.776 6.24-21.372 14.384-3.072 5.442-4.481 6.486-5.428 4.02-.648-1.689 5.697-12.655 10.214-17.656 3.306-3.658 3.349-3.824 2.363-9.025-.553-2.914-2.352-7.995-3.999-11.29-3.455-6.915-3.394-6.672-1.691-6.672 2.536 0 9.587-6.129 12.977-11.279 6.868-10.435 9.487-23.638 7.078-35.681-.612-3.061-.806-3.178-4.195-2.543-6.209 1.165-12.76 5.234-18.044 11.208-4.177 4.722-5.307 5.517-6.107 4.295-1.573-2.404-1.397-2.683 6.85-10.863 9.567-9.491 12.451-16.302 12.568-29.689.064-7.38-.247-8.693-3.735-15.75-2.092-4.234-4.279-7.698-4.859-7.698s-3.7 2.745-6.932 6.1m326.881 60.878c-26.807 5.653-48.84 18.952-65.336 39.437-18.351 22.788-21.936 49.642-9.729 72.872 13.22 25.158 34.332 32.102 86.28 28.378 36.879-2.643 47.839-2.043 57.437 3.144 6.893 3.724 9.074 7.758 9.024 16.691-.098 17.897-15.928 35.842-44.461 50.403-48.234 24.615-113.375 24.083-146.5-1.196-24.575-18.754-22.267-46.726 5.022-60.869 4.348-2.253 6.809-4.226 7.573-6.07 4.787-11.549-14.114-4.972-29.162 10.147-23.445 23.559-28.265 51.888-12.774 75.086 18.416 27.577 66.475 39.543 114.841 28.594 57.508-13.019 113.182-57.963 127.15-102.644 3.321-10.626 3.335-27.906.029-36.153-8.196-20.439-32.327-28.855-71.047-24.777-48.934 5.154-71.445 1.508-79.945-12.951-2.435-4.141-2.687-5.514-2.687-14.623 0-9.671.148-10.352 3.903-17.949 7.171-14.507 22.871-26.915 42.597-33.665 12.958-4.434 35.005-4.913 43.773-.95 18.115 8.187 13.845 24.286-11.273 42.505-1.987 1.441-1.985 1.467.301 3.9 4.796 5.106 18.209 10.685 25.699 10.69 8.763.006 23.548-12.144 27.442-22.552 6.846-18.298-1.812-35.957-21.493-43.836-14.566-5.831-38.81-7.376-56.664-3.612m336.83 61.661c-6.795 2.087-14.239 9.733-18.861 19.374-4.576 9.546-5.453 13.991-2.891 14.661 1.385.363 2.383 2.639 3.963 9.041 1.162 4.707 2.331 8.776 2.598 9.043 1.011 1.01 9.335-4.793 13.944-9.721 7.994-8.545 12.632-21.448 12.632-35.139 0-9.607-1.215-10.381-11.385-7.259m-28.22 45.36c-10.587 8.362-18.102 19.731-17.183 25.995.545 3.711.759 3.734-4.805-.513-8.058-6.151-8.038-6.15-10.739-.752-9.359 18.705-10.588 34.819-3.518 46.139 2.965 4.749 9.391-.225 15.452-11.961 6.089-11.788 13.48-19.838 22.126-24.094 8.161-4.017 9.651-6.845 9.65-18.313-.001-7.244-2.582-19.89-4.272-20.935-.339-.209-3.358 1.787-6.711 4.434M483.882 464.63c-6.882 5.864-11.5 10.548-11.68 11.844-.691 4.97 17.442 36.57 29.716 51.785 8.27 10.252 32.744 31.741 36.151 31.741 2.162 0 1.415-3.564-1.723-8.216-17.343-25.706-29.969-54.145-37.375-84.182-1.613-6.544-3.108-12.072-3.32-12.285-.213-.213-5.509 3.978-11.769 9.313M1008 488.288c-6.478 2.005-24 21.848-24 27.179 0 1.079 3.558.426 5.441-.999 3.149-2.382 3.366-1.932 4.108 8.532.775 10.94.749 10.909 6.544 7.952 12.433-6.342 21.453-21.012 24.41-39.702l.673-4.25-6.838.102c-3.761.056-8.413.59-10.338 1.186m-27.947 34.717c-8.392 4.454-17.505 12.837-19.275 17.731-1.588 4.393-2.731 4.134-7.681-1.736-5.092-6.039-5.777-6.09-9.56-.712-12.742 18.111-14.752 22.902-14.704 35.056.033 8.554 1.35 12.656 4.06 12.656 2.635 0 5.107 1.02 5.107 2.107 0 .491-.575.893-1.278.893-2.275 0-15.122 6.704-18.672 9.744-3.247 2.779-3.492 3.43-4.142 11.001-1.058 12.305-2.84 13.928-2.878 2.619-.03-9.054-3.261-18.949-6.541-20.031-.544-.179-4.437 2.364-8.65 5.652-12.656 9.877-20.304 23.536-19.647 35.091.42 7.401 3.71 7.954 11.658 1.959 2.943-2.219 5.906-4.035 6.584-4.035 2.544 0 2.51 1.449-.097 4.17-2.81 2.934-2.75 3.747.321 4.329 1.013.191 1.96.382 2.103.424.144.043-1.554 3.687-3.772 8.1-4.777 9.501-4.796 9.477 7.511 9.477 9.12 0 15.019-1.84 23.27-7.26 5.54-3.638 18.508-17.879 17.927-19.686-.187-.58-3.142-2.464-6.567-4.186-7.976-4.012-7.963-3.993-3.972-5.66 7.041-2.943 13.97-13.92 16.461-26.082 2.032-9.918 2.254-10.488 4.578-11.731 1.973-1.056 2.033-.917 1.405 3.251-.362 2.395-1.278 6.153-2.036 8.351-1.787 5.183-1.251 5.833 4.145 5.024 8.743-1.312 21.811-9.272 27.531-16.772 2.21-2.897 10.758-18.938 10.758-20.188 0-1.037-10.605-3.561-14.96-3.561-6.161 0-16.855 5.253-24.2 11.887-5.223 4.718-8.84 6.434-8.84 4.194 0-.505 3.248-3.883 7.217-7.506l7.218-6.587-.192-6.744c-.132-4.619.11-6.271.767-5.244.528.825.966 3.638.975 6.25.016 4.906.7 5.524 4.102 3.703 1.075-.575 5.179-1.838 9.119-2.807 10.428-2.563 14.456-9.795 15.536-27.891.664-11.143.535-11.207-10.689-5.25m-549.705 65.531c-1.586 4.133 4.207 20.457 9.748 27.466l3.951 4.998h7.917c8.815 0 11.659 1.494 4.207 2.209-5.063.487-12.048 3.523-16.773 7.291l-2.838 2.263 4.776 5.868c11.841 14.548 29.739 22.152 43.414 18.444 5.217-1.414 5.39-2.874 1.3-10.976l-2.95-5.844 2.44-2.293c2.109-1.981 2.787-2.134 4.997-1.127 3.348 1.525 11.139 1.497 12.092-.043 1.225-1.983.718-10.086-1.002-16.002-2.491-8.571-8.787-17.11-17.385-23.581l-7.489-5.637-2.384 2.964c-3.605 4.482-6.369 12.816-6.369 19.202 0 3.465-.357 5.293-.919 4.712-1.348-1.393-2.941-11.455-2.382-15.044.417-2.675-.06-3.524-3.522-6.266-5.73-4.538-13.74-7.888-20.677-8.647-3.3-.361-6.79-.876-7.755-1.144-1.05-.291-2.013.186-2.397 1.187m103.341 49.173c-1.232 2.036-3.689 12.006-3.689 14.973 0 2.247-.473 3.318-1.465 3.318-1.801 0-3.882-3.652-3.158-5.541 1.744-4.544-11.155-8.633-26.004-8.244l-10.873.285.348 2.5c.668 4.803 5.38 13.133 10.649 18.823 7.44 8.036 9.1 8.788 15.151 6.858 5.715-1.823 20.181-2.653 20.581-1.181.152.56-2.806 1.248-6.729 1.563-8.42.678-12.265 2.455-19.441 8.986-6.229 5.669-6.808 4.25 5.271 12.933 9.369 6.735 14.956 8.518 26.697 8.518 8.221 0 10.199-.346 14.424-2.52 6.221-3.202 6.327-3.674 2.081-9.234l-3.517-4.607 2.881-2.882c2.366-2.365 3.531-2.806 6.507-2.458 2.135.249 4.282-.123 5.224-.905 4.183-3.471-2.772-21.014-11.607-29.279-6.28-5.874-22.096-13.945-23.331-11.906M836.5 641.23c-14.147 7.369-25.949 21.704-27.231 33.074-.837 7.43 1.087 7.798 11.89 2.277 6.907-3.531 9.415-4.388 10.244-3.503.8.855.753 1.298-.176 1.638-2.439.893-10.607 6.792-10.959 7.915-.195.622.789 1.418 2.188 1.769 3.424.859 3.207 2.578-1.024 8.122-1.963 2.571-3.426 4.798-3.25 4.949 2.505 2.161 8.616 3.863 15.386 4.285 13.461.84 23.768-3.286 37.521-15.02l4.411-3.763-4.5-3.962c-2.475-2.179-5.288-4.229-6.25-4.554-2.509-.848-2.312-3.77.2-2.973 5.035 1.598 15.681-7.805 21.149-18.68 2.145-4.268 3.901-8.387 3.901-9.155 0-3.776-21.213-2.291-30 2.102-5.464 2.731-5.511 2.793-7.136 9.501-.9 3.713-2.381 7.889-3.292 9.278-2.177 3.322-1.296 4.47 3.428 4.47 2.135 0 4.16.45 4.5 1 .392.635-2.323 1-7.441 1-9.042 0-8.963.06-5.648-4.317 4.729-6.244 6.145-14.058 4.062-22.423-.994-3.993-2.295-7.246-2.89-7.229s-4.683 1.907-9.083 4.199m-234.763 28.366c-.405.406-.737 4.487-.737 9.071 0 8.573-1.057 10.496-3.193 5.809-1.42-3.116-4.194-3.892-13.807-3.863-7.294.021-20.635 3.622-23.302 6.289C557.26 690.34 579.014 709 586.46 709c.87 0 3.276-1.12 5.344-2.489 9.046-5.986 14.58-7.251 28.217-6.448 14.325.844 13.249.691 12.575 1.782-.287.464-3.285.426-6.662-.085-10.663-1.614-22.182 1.371-29.698 7.695-3.929 3.306-9.599 12.156-8.921 13.925 1.046 2.725 17.555 7.777 25.685 7.86 16.674.17 31.304-8.509 33.587-19.925.559-2.795.279-3.333-2.478-4.759-4.145-2.143-3.95-3.535.359-2.563 10.066 2.27 1.718-16.794-11.228-25.641-8.541-5.837-28.793-11.466-31.503-8.756m164.976.942c-9.247 1.839-16.184 5.227-22.643 11.059-7.01 6.329-13.07 15.623-13.07 20.043v3.331l4.813-1.897c5.478-2.159 12.687-3.06 12.687-1.586 0 .544-2.183 1.728-4.852 2.631-10.347 3.503-13.048 7.178-9.789 13.321 5.222 9.845 21.692 16.054 35.709 13.463 6.064-1.121 23.434-7.614 23.429-8.758-.001-.355-1.576-3.255-3.5-6.445-4.242-7.035-4.229-6.695-.247-6.722 4.072-.027 10.743-3.012 15.95-7.137 4.031-3.192 13.8-14.304 13.8-15.696 0-1.178-13.571-5.25-19.317-5.795-6.847-.65-15.753.757-16.777 2.65-.446.825-1.567 3.205-2.491 5.289-2.532 5.71-10.122 13.711-13.008 13.711-3.342 0-3.037-.99 1.713-5.547 6.001-5.759 8.858-12.427 8.87-20.703.011-7.781.501-7.555-11.277-5.212m-117.046 39.129c-1.827 1.826-.237 3.132 4.583 3.762 6.71.879 13.971 2.684 13.338 3.317-.269.269-4.076 1.935-8.459 3.702-11.416 4.603-21.892 11.549-19.456 12.899 1.005.557 5.592 3.175 10.193 5.817l8.367 4.805 8.955-8.43c18.158-17.093 25.604-16.91 43.862 1.078l7.551 7.439 10.411-6.015c5.727-3.309 10.879-6.195 11.45-6.414 2.468-.946-11.982-9.485-20.462-12.091-9.308-2.862-8.702-2.56-7-3.492.825-.452 4.2-1.395 7.5-2.096 6.786-1.44 9.5-2.578 9.5-3.983 0-1.419-6.616-1.223-23.805.705-14.454 1.62-16.208 1.621-31.5.004-17.204-1.818-23.946-2.089-25.028-1.007"/></svg>