<svg width="172" height="172" viewBox="0 0 172 172" fill="none" xmlns="http://www.w3.org/2000/svg">
<path fill-rule="evenodd" clip-rule="evenodd" d="M76.7547 0.507626C55.1051 2.87901 35.0034 13.5439 20.7072 30.2431C9.77206 43.0163 3.15627 57.3756 0.571268 73.9472C-0.189981 78.8274 -0.19057 93.0166 0.570385 97.8886C5.86225 131.768 28.6006 158.261 60.8215 168.089C78.4519 173.467 99.0575 172.682 116.092 165.985C160.719 148.439 182.86 98.47 165.51 54.4523C151.293 18.3821 114.992 -3.68094 76.7547 0.507626ZM79.9593 8.33853C45.146 11.0454 17.3554 34.9516 9.80157 68.6907C7.6804 78.1644 7.55766 91.0029 9.49471 100.736C17.2034 139.466 53.0937 166.51 92.3928 163.202C128.306 160.178 156.761 133.497 162.364 97.593C163.124 92.724 163.134 79.655 162.381 74.8339C156.911 39.7863 129.423 12.9282 94.7842 8.78514C89.9715 8.20966 83.9503 8.02818 79.9593 8.33853ZM78.5519 14.5654C62.3927 15.8987 44.7267 24.8838 33.8978 37.2778C22.7992 49.9797 16.1731 63.9568 14.6621 77.852C14.318 81.0137 14.2449 88.1713 14.5346 90.2891L14.7193 91.6393L18.0015 88.2207L21.2838 84.8018L21.4655 78.7094C21.7736 68.3753 23.9889 60.5793 29.0214 52.1209C41.6366 30.9179 64.6977 17.1889 89.516 16.1062C92.6347 15.9702 93.7205 15.8254 93.7205 15.5455C93.7205 14.5119 85.5778 13.9857 78.5519 14.5654ZM99.9778 18.9638C92.7291 21.6121 72.2368 37.0153 57.8229 50.6501C56.8226 51.5962 55.8171 52.3703 55.5884 52.3703C55.3597 52.3703 53.9449 51.7718 52.4446 51.0403C49.2836 49.4991 48.5743 49.4264 47.045 50.4881C45.4352 51.6057 41.2002 56.8976 41.2002 57.7917C41.2002 58.5271 43.085 60.4681 44.5609 61.2526L45.8665 61.9463L44.9347 63.0192C36.936 72.2308 32.3163 77.2543 25.4187 84.2414C16.3769 93.4006 15.5301 94.4224 15.5301 96.1742C15.5301 99.7096 19.0953 101.08 23.091 99.0797C26.6503 97.298 32.5078 91.4123 36.954 85.15C38.2703 83.2964 41.9682 78.0807 45.172 73.5594C48.3757 69.038 51.2882 64.9996 51.6443 64.5846L52.292 63.8306L54.4914 64.3017C64.6582 66.4798 78.5658 65.6031 90.9237 62.0057C99.0747 59.6329 102.969 57.2638 102.166 55.1673C101.952 54.6087 101.789 54.6208 97.8513 55.4868C92.2476 56.7191 64.7789 55.2622 61.6085 53.5644C60.8333 53.1495 73.5807 41.4844 80.6306 36.1579C91.9466 27.6078 96.9724 27.1204 100.481 34.2328C102.421 38.166 103.334 42.7317 105.645 60.0552C107.423 73.3817 108.109 76.4613 109.943 79.3588C112.965 84.1323 117.903 83.0877 128.346 75.4652C134.525 70.9551 138.179 67.0834 137.927 65.3123C137.779 64.2698 136.608 64.5261 133.327 66.3184C127.911 69.2783 125.831 69.818 123.83 68.7817C121.957 67.8116 121.374 65.8813 118.647 51.6314C114.851 31.7893 113.252 26.4444 109.725 21.7901C107.261 18.5388 103.849 17.5495 99.9778 18.9638ZM119.52 23.7284C119.406 23.914 120.62 25.2731 122.359 26.9058C136.267 39.9648 146.402 56.07 149.914 70.6959C155.276 93.0193 148.613 117.309 133.04 132.213C123.652 141.199 110.21 148.62 93.1304 154.247C86.5193 156.425 85.754 156.714 85.754 157.028C85.754 158.201 99.2842 155.977 106.703 153.584C132.483 145.268 150.96 127.069 156.372 104.663C163.643 74.5587 152.493 44.0121 128.39 28.0027C122.694 24.2194 120.014 22.928 119.52 23.7284ZM86.8708 74.8274C78.9611 76.4982 72.4601 80.4291 67.5928 86.4839C62.1782 93.2194 61.1204 101.157 64.7222 108.023C68.6229 115.459 74.8522 117.511 90.1798 116.411C101.061 115.629 104.295 115.807 107.127 117.34C109.161 118.441 109.804 119.633 109.79 122.273C109.761 127.563 105.09 132.867 96.6711 137.171C82.4393 144.447 63.2189 144.289 53.4451 136.818C46.194 131.274 46.875 123.007 54.9269 118.826C56.2098 118.16 56.9359 117.577 57.1613 117.032C58.5738 113.619 52.9969 115.563 48.5569 120.031C41.6392 126.995 40.2171 135.368 44.7878 142.225C50.2216 150.376 64.4018 153.913 78.6726 150.676C95.6408 146.828 112.068 133.544 116.189 120.338C117.169 117.197 117.173 112.089 116.198 109.652C113.779 103.611 106.659 101.123 95.2348 102.328C80.7964 103.852 74.1543 102.774 71.6463 98.5004C70.9279 97.2764 70.8535 96.8706 70.8535 94.1782C70.8535 91.3197 70.8972 91.1185 72.0051 88.873C74.121 84.5851 78.7534 80.9176 84.5737 78.9225C88.3971 77.612 94.9022 77.4704 97.4893 78.6417C102.834 81.0616 101.574 85.82 94.1631 91.2051C93.5768 91.631 93.5774 91.6387 94.2519 92.3578C95.667 93.867 99.6246 95.516 101.835 95.5175C104.42 95.5192 108.783 91.928 109.932 88.8517C111.952 83.4433 109.397 78.2238 103.59 75.895C99.2921 74.1715 92.1387 73.7148 86.8708 74.8274ZM24.6421 110.489C22.6115 112.222 21.2489 113.607 21.1958 113.99C20.9919 115.459 26.3422 124.799 29.9638 129.296C32.4039 132.326 39.6252 138.678 40.6304 138.678C41.2683 138.678 41.0479 137.624 40.122 136.249C35.0049 128.651 31.2794 120.245 29.0942 111.367C28.6183 109.433 28.1772 107.799 28.1146 107.736C28.0518 107.673 26.4892 108.912 24.6421 110.489Z" fill="black"/>
</svg>
